<?xml version="1.0" encoding="UTF-8"?>
<svg  width="100pt" height="100pt" version="1.1" viewBox="0 0 100 100" xmlns="http://www.w3.org/2000/svg">
 <g>
  <path fill="#FFFFFF" d="m61.375 34.551h-15.879c-2.5938 0-4.7109 2.1133-4.7109 4.7109v5.7109h2.3711v-5.7109c0-1.2891 1.0508-2.3398 2.3398-2.3398h15.879c1.2891 0 2.3398 1.0508 2.3398 2.3398v21.48c0 1.2891-1.0508 2.3398-2.3398 2.3398l-15.879-0.003906c-1.2891 0-2.3398-1.0508-2.3398-2.3398v-5.7109h-2.3711v5.7109c0 2.5938 2.1133 4.7109 4.7109 4.7109h15.879c2.5938 0 4.7109-2.1133 4.7109-4.7109v-21.477c0-2.5977-2.1094-4.7109-4.7109-4.7109z"/>
  <path fill="#FFFFFF" d="m48.43 54.816c0 0.21094 0.23437 0.32812 0.41016 0.21094l6.6797-4.7539c0.19141-0.13672 0.19141-0.41406 0-0.55078l-6.6797-4.7539c-0.17188-0.12109-0.41016 0-0.41016 0.21094v2.0312l-13.863-0.007813c-0.35938 0-0.65625 0.28906-0.65625 0.65625v4.2695c0 0.35938 0.28906 0.65625 0.65625 0.65625h13.859v2.0312z"/>
 </g>
</svg>
